<svg width="1200" height="194" viewBox="0 0 1200 194" fill="none" xmlns="http://www.w3.org/2000/svg">
<defs>
  <linearGradient id="accent" x1="58" y1="0" x2="1142" y2="0" gradientUnits="userSpaceOnUse"><stop stop-color="#8B5CF6"/><stop offset=".52" stop-color="#22D3EE"/><stop offset="1" stop-color="#F472B6"/></linearGradient>
  <radialGradient id="glow" cx="0" cy="0" r="1" gradientTransform="translate(960 15) rotate(160) scale(330 120)"><stop stop-color="#8B5CF6" stop-opacity=".13"/><stop offset="1" stop-color="#8B5CF6" stop-opacity="0"/></radialGradient>
</defs>
<rect x="1" y="1" width="1198" height="192" rx="24" fill="#0A0F1D" stroke="#25304A" stroke-width="2"/><rect x="1" y="1" width="1198" height="192" rx="24" fill="url(#glow)"/>
<text x="58" y="42" fill="#78879D" font-size="12" font-weight="700" letter-spacing="2.05" font-family="Inter,Segoe UI,Arial,sans-serif">GITHUB SIGNAL</text>
<text x="58" y="68" fill="#F8FAFC" font-size="19" font-weight="700" font-family="Inter,Segoe UI,Arial,sans-serif">A live snapshot of what is happening on my public GitHub.</text>
<g transform="translate(929 31)"><rect width="213" height="30" rx="15" fill="#0F172A" stroke="#334155"/><circle cx="17" cy="15" r="4" fill="#22D3EE"><animate attributeName="opacity" values="1;.3;1" dur="1.8s" repeatCount="indefinite"/></circle><text x="30" y="19" fill="#93A4BB" font-size="10.5" letter-spacing="1.15" font-family="JetBrains Mono,Consolas,monospace">AUTO-SYNC · GITHUB</text></g>
<g transform="translate(58 82)"><rect width="247" height="88" rx="18" fill="#0D1427" stroke="#26334E"/><circle cx="22" cy="24" r="4.5" fill="#8B5CF6"/><text x="36" y="29" fill="#738198" font-size="11" font-weight="700" letter-spacing="1.35" font-family="JetBrains Mono,Consolas,monospace">PUBLIC REPOS</text><text x="20" y="67" fill="#F8FAFC" font-size="30" font-weight="760" font-family="Inter,Segoe UI,Arial,sans-serif">3</text></g>
<g transform="translate(337 82)"><rect width="247" height="88" rx="18" fill="#0D1427" stroke="#26334E"/><circle cx="22" cy="24" r="4.5" fill="#22D3EE"/><text x="36" y="29" fill="#738198" font-size="11" font-weight="700" letter-spacing="1.35" font-family="JetBrains Mono,Consolas,monospace">FOLLOWERS</text><text x="20" y="67" fill="#F8FAFC" font-size="30" font-weight="760" font-family="Inter,Segoe UI,Arial,sans-serif">1</text></g>
<g transform="translate(616 82)"><rect width="247" height="88" rx="18" fill="#0D1427" stroke="#26334E"/><circle cx="22" cy="24" r="4.5" fill="#F472B6"/><text x="36" y="29" fill="#738198" font-size="11" font-weight="700" letter-spacing="1.15" font-family="JetBrains Mono,Consolas,monospace">CONTRIBUTIONS · 12MO</text><text x="20" y="67" fill="#F8FAFC" font-size="30" font-weight="760" font-family="Inter,Segoe UI,Arial,sans-serif">64</text></g>
<g transform="translate(895 82)"><rect width="247" height="88" rx="18" fill="#0D1427" stroke="#26334E"/><circle cx="22" cy="24" r="4.5" fill="#22D3EE"><animate attributeName="opacity" values="1;.25;1" dur="1.7s" repeatCount="indefinite"/></circle><text x="36" y="29" fill="#738198" font-size="11" font-weight="700" letter-spacing="1.15" font-family="JetBrains Mono,Consolas,monospace">ACTIVE DAYS · 12MO</text><text x="20" y="67" fill="#22D3EE" font-size="23" font-weight="760" font-family="Inter,Segoe UI,Arial,sans-serif">SYNCING</text></g>
<rect x="58" y="186" width="1084" height="2" rx="1" fill="url(#accent)" opacity=".48"/>
</svg>
