<svg width="1200" height="430" viewBox="0 0 1200 430" fill="none" xmlns="http://www.w3.org/2000/svg">
<defs>
  <linearGradient id="bg" x1="80" y1="20" x2="1120" y2="410" gradientUnits="userSpaceOnUse">
    <stop stop-color="#070B16"/>
    <stop offset="0.48" stop-color="#10172C"/>
    <stop offset="1" stop-color="#090D18"/>
  </linearGradient>
  <linearGradient id="accent" x1="170" y1="80" x2="1030" y2="350" gradientUnits="userSpaceOnUse">
    <stop stop-color="#8B5CF6"/>
    <stop offset="0.5" stop-color="#22D3EE"/>
    <stop offset="1" stop-color="#F472B6"/>
  </linearGradient>
  <radialGradient id="glow1" cx="0" cy="0" r="1" gradientTransform="translate(960 85) rotate(132) scale(280 240)">
    <stop stop-color="#7C3AED" stop-opacity=".42"/>
    <stop offset="1" stop-color="#7C3AED" stop-opacity="0"/>
  </radialGradient>
  <radialGradient id="glow2" cx="0" cy="0" r="1" gradientTransform="translate(300 390) rotate(-30) scale(340 220)">
    <stop stop-color="#0891B2" stop-opacity=".32"/>
    <stop offset="1" stop-color="#0891B2" stop-opacity="0"/>
  </radialGradient>
  <filter id="blur" x="-30%" y="-30%" width="160%" height="160%">
    <feGaussianBlur stdDeviation="10"/>
  </filter>
</defs>

<rect width="1200" height="430" rx="28" fill="url(#bg)"/>
<rect width="1200" height="430" rx="28" fill="url(#glow1)"/>
<rect width="1200" height="430" rx="28" fill="url(#glow2)"/>

<!-- grid -->
<g opacity=".13" stroke="#94A3B8">
  <path d="M0 70H1200M0 140H1200M0 210H1200M0 280H1200M0 350H1200"/>
  <path d="M100 0V430M200 0V430M300 0V430M400 0V430M500 0V430M600 0V430M700 0V430M800 0V430M900 0V430M1000 0V430M1100 0V430"/>
</g>

<!-- neural network decoration -->
<g opacity=".95">
  <path d="M860 102L965 67L1058 121L1017 210L1090 288L970 334L888 277L826 189L860 102Z" stroke="url(#accent)" stroke-width="2.4" opacity=".65"/>
  <path d="M860 102L1017 210M965 67L888 277M1058 121L970 334M826 189L1090 288" stroke="#38BDF8" stroke-opacity=".28"/>
  <g fill="#0B1020" stroke="url(#accent)" stroke-width="3">
    <circle cx="860" cy="102" r="10"/><circle cx="965" cy="67" r="9"/>
    <circle cx="1058" cy="121" r="11"/><circle cx="1017" cy="210" r="13"/>
    <circle cx="1090" cy="288" r="9"/><circle cx="970" cy="334" r="11"/>
    <circle cx="888" cy="277" r="10"/><circle cx="826" cy="189" r="9"/>
  </g>
  <circle cx="1017" cy="210" r="34" fill="#8B5CF6" opacity=".18" filter="url(#blur)"/>
</g>

<!-- top label -->
<rect x="70" y="62" width="206" height="38" rx="19" fill="#111827" stroke="#334155"/>
<circle cx="91" cy="81" r="5" fill="#22D3EE"/>
<text x="105" y="87" fill="#CBD5E1" font-size="15" font-weight="600" font-family="Inter,Segoe UI,Arial,sans-serif">AI ENGINEER · IRAN</text>

<!-- title -->
<text x="70" y="170" fill="#F8FAFC" font-size="61" font-weight="800" font-family="Inter,Segoe UI,Arial,sans-serif" letter-spacing="1">FATEMEH</text>
<text x="70" y="232" fill="url(#accent)" font-size="61" font-weight="800" font-family="Inter,Segoe UI,Arial,sans-serif" letter-spacing="1">DEHGHAN</text>

<text x="73" y="278" fill="#CBD5E1" font-size="22" font-weight="500" font-family="Inter,Segoe UI,Arial,sans-serif">
  LLM Applications  ·  RAG Systems  ·  Intelligent Backends
</text>

<!-- pills -->
<g font-family="Inter,Segoe UI,Arial,sans-serif" font-size="15" font-weight="600">
  <rect x="70" y="318" width="112" height="38" rx="19" fill="#131A2A" stroke="#334155"/><text x="96" y="343" fill="#E2E8F0">Python</text>
  <rect x="194" y="318" width="118" height="38" rx="19" fill="#131A2A" stroke="#334155"/><text x="220" y="343" fill="#E2E8F0">Django</text>
  <rect x="324" y="318" width="121" height="38" rx="19" fill="#131A2A" stroke="#334155"/><text x="350" y="343" fill="#E2E8F0">FastAPI</text>
  <rect x="457" y="318" width="135" height="38" rx="19" fill="#131A2A" stroke="#334155"/><text x="480" y="343" fill="#E2E8F0">LangChain</text>
  <rect x="604" y="318" width="111" height="38" rx="19" fill="#131A2A" stroke="#334155"/><text x="628" y="343" fill="#E2E8F0">Qdrant</text>
</g>

<text x="73" y="395" fill="#64748B" font-size="14" font-family="Inter,Segoe UI,Arial,sans-serif">building language models into practical products →</text>
</svg>